<svg width="25" height="24" viewBox="0 0 25 24" fill="none" xmlns="http://www.w3.org/2000/svg">
<path d="M18.2665 22.5601H7.06653C5.24653 22.5601 3.58653 21.1601 3.28653 19.3601L1.95653 11.4001C1.74653 10.1601 2.34654 8.57011 3.33654 7.78011L10.2665 2.23006C11.6065 1.15006 13.7165 1.16007 15.0665 2.24007L21.9965 7.78011C22.9765 8.57011 23.5765 10.1601 23.3765 11.4001L22.0465 19.3601C21.7465 21.1301 20.0565 22.5601 18.2665 22.5601ZM12.6565 2.94008C12.1265 2.94008 11.5965 3.10005 11.2065 3.41005L4.27654 8.9601C3.70654 9.4201 3.31654 10.4401 3.43654 11.1601L4.76654 19.1201C4.94654 20.1701 5.99653 21.0601 7.06653 21.0601H18.2665C19.3365 21.0601 20.3865 20.1701 20.5665 19.1101L21.8965 11.1501C22.0165 10.4301 21.6165 9.40009 21.0565 8.95009L14.1265 3.41005C13.7265 3.10005 13.1965 2.94008 12.6565 2.94008Z" fill="#AAAAAA"/>
<path d="M12.6667 16.25C10.8767 16.25 9.41669 14.79 9.41669 13C9.41669 11.21 10.8767 9.75 12.6667 9.75C14.4567 9.75 15.9167 11.21 15.9167 13C15.9167 14.79 14.4567 16.25 12.6667 16.25ZM12.6667 11.25C11.7067 11.25 10.9167 12.04 10.9167 13C10.9167 13.96 11.7067 14.75 12.6667 14.75C13.6267 14.75 14.4167 13.96 14.4167 13C14.4167 12.04 13.6267 11.25 12.6667 11.25Z" fill="#AAAAAA"/>
</svg>
