<svg width="25" height="24" viewBox="0 0 25 24" fill="none" xmlns="http://www.w3.org/2000/svg">
<path d="M15.0334 22.75H9.63338C4.69338 22.75 2.59338 20.64 2.59338 15.71V11.22C2.59338 10.81 2.93338 10.47 3.34338 10.47C3.75338 10.47 4.09338 10.81 4.09338 11.22V15.71C4.09338 19.8 5.54338 21.25 9.63338 21.25H15.0234C19.1134 21.25 20.5634 19.8 20.5634 15.71V11.22C20.5634 10.81 20.9034 10.47 21.3134 10.47C21.7234 10.47 22.0634 10.81 22.0634 11.22V15.71C22.0734 20.64 19.9634 22.75 15.0334 22.75Z" fill="#AAAAAA"/>
<path d="M12.3334 12.75C11.2334 12.75 10.2334 12.32 9.52337 11.53C8.81337 10.74 8.48338 9.71 8.59338 8.61L9.26338 1.93C9.30338 1.55 9.62338 1.25 10.0134 1.25H14.6834C15.0734 1.25 15.3934 1.54 15.4334 1.93L16.1034 8.61C16.2134 9.71 15.8834 10.74 15.1734 11.53C14.4334 12.32 13.4334 12.75 12.3334 12.75ZM10.6834 2.75L10.0834 8.76C10.0134 9.43 10.2134 10.06 10.6334 10.52C11.4834 11.46 13.1834 11.46 14.0334 10.52C14.4534 10.05 14.6534 9.42 14.5834 8.76L13.9834 2.75H10.6834Z" fill="#AAAAAA"/>
<path d="M18.6434 12.75C16.6134 12.75 14.8034 11.11 14.5934 9.09L13.8934 2.08C13.8734 1.87 13.9434 1.66 14.0834 1.5C14.2234 1.34 14.4234 1.25 14.6434 1.25H17.6934C20.6334 1.25 22.0034 2.48 22.4134 5.5L22.6934 8.28C22.8134 9.46 22.4534 10.58 21.6834 11.43C20.9134 12.28 19.8334 12.75 18.6434 12.75ZM15.4734 2.75L16.0934 8.94C16.2234 10.19 17.3834 11.25 18.6434 11.25C19.4034 11.25 20.0834 10.96 20.5734 10.43C21.0534 9.9 21.2734 9.19 21.2034 8.43L20.9234 5.68C20.6134 3.42 19.8834 2.75 17.6934 2.75H15.4734Z" fill="#AAAAAA"/>
<path d="M5.9734 12.75C4.7834 12.75 3.7034 12.28 2.9334 11.43C2.1634 10.58 1.8034 9.46 1.9234 8.28L2.1934 5.53C2.6134 2.48 3.9834 1.25 6.9234 1.25H9.9734C10.1834 1.25 10.3834 1.34 10.5334 1.5C10.6834 1.66 10.7434 1.87 10.7234 2.08L10.0234 9.09C9.81339 11.11 8.0034 12.75 5.9734 12.75ZM6.9234 2.75C4.7334 2.75 4.0034 3.41 3.6834 5.7L3.4134 8.43C3.3334 9.19 3.5634 9.9 4.0434 10.43C4.5234 10.96 5.2034 11.25 5.9734 11.25C7.2334 11.25 8.4034 10.19 8.5234 8.94L9.1434 2.75H6.9234Z" fill="#AAAAAA"/>
<path d="M14.8334 22.75H9.83337C9.42337 22.75 9.08337 22.41 9.08337 22V19.5C9.08337 17.4 10.2334 16.25 12.3334 16.25C14.4334 16.25 15.5834 17.4 15.5834 19.5V22C15.5834 22.41 15.2434 22.75 14.8334 22.75ZM10.5834 21.25H14.0834V19.5C14.0834 18.24 13.5934 17.75 12.3334 17.75C11.0734 17.75 10.5834 18.24 10.5834 19.5V21.25Z" fill="#AAAAAA"/>
</svg>
